<svg xmlns="http://www.w3.org/2000/svg" xmlns:xlink="http://www.w3.org/1999/xlink" width="500" zoomAndPan="magnify" viewBox="0 0 375 374.999991" height="500" preserveAspectRatio="xMidYMid meet" version="1.0"><defs><g/></defs><rect x="-37.5" width="450" fill="#ffffff" y="-37.499999" height="449.999989" fill-opacity="1"/><rect x="-37.5" width="450" fill="#630969" y="-37.499999" height="449.999989" fill-opacity="1"/><g fill="#ff0000" fill-opacity="1"><g transform="translate(53.416935, 198.985743)"><g><path d="M 21.191406 0 L 12.210938 0 L 0.449219 -15.714844 L 12.210938 -31.429688 L 21.191406 -31.429688 L 9.382812 -15.714844 Z M 21.191406 0 "/></g></g></g><g fill="#ff0000" fill-opacity="1"><g transform="translate(79.855631, 198.985743)"><g><path d="M 10.550781 -31.429688 L 20.519531 -17.914062 C 22.195312 -20.160156 23.863281 -22.410156 25.523438 -24.671875 C 27.1875 -26.933594 28.855469 -29.183594 30.53125 -31.429688 L 37.492188 -31.429688 L 37.492188 0 L 30.308594 0 L 30.308594 -19.171875 C 28.660156 -16.988281 27.023438 -14.792969 25.390625 -12.59375 C 23.757812 -10.394531 22.136719 -8.1875 20.519531 -5.972656 C 18.871094 -8.1875 17.242188 -10.394531 15.625 -12.59375 C 14.007812 -14.792969 12.390625 -16.988281 10.777344 -19.171875 L 10.777344 0 L 3.59375 0 L 3.59375 -24.246094 L 0.222656 -24.246094 L 0.222656 -31.429688 Z M 10.550781 -31.429688 "/></g></g></g><g fill="#ff0000" fill-opacity="1"><g transform="translate(124.381997, 198.985743)"><g><path d="M 30.53125 0 L 6.734375 0 L 2.246094 -4.488281 L 2.246094 -26.9375 L 6.734375 -31.429688 L 30.53125 -31.429688 L 35.019531 -26.9375 L 35.019531 -4.488281 Z M 27.835938 -7.183594 L 27.835938 -24.246094 L 9.429688 -24.246094 L 9.429688 -7.183594 Z M 27.835938 -7.183594 "/></g></g></g><g fill="#ff0000" fill-opacity="1"><g transform="translate(166.439812, 198.985743)"><g><path d="M 31.878906 0 L 24.695312 0 L 10.777344 -19.261719 L 10.777344 0 L 3.59375 0 L 3.59375 -24.246094 L 0.222656 -24.246094 L 0.222656 -31.429688 L 10.777344 -31.429688 L 24.695312 -12.121094 L 24.695312 -31.429688 L 31.878906 -31.429688 Z M 31.878906 0 "/></g></g></g><g fill="#ff0000" fill-opacity="1"><g transform="translate(205.355857, 198.985743)"><g><path d="M 2.246094 -31.429688 L 9.429688 -31.429688 L 9.429688 0 L 2.246094 0 Z M 2.246094 -31.429688 "/></g></g></g><g fill="#ff0000" fill-opacity="1"><g transform="translate(221.830632, 198.985743)"><g><path d="M 32.777344 0 L 6.734375 0 L 2.246094 -4.488281 L 2.246094 -26.9375 L 6.734375 -31.429688 L 29.410156 -31.429688 L 33.898438 -26.9375 L 33.898438 -19.753906 L 26.714844 -19.753906 L 26.714844 -24.246094 L 9.429688 -24.246094 L 9.429688 -7.183594 L 32.777344 -7.183594 Z M 32.777344 0 "/></g></g></g><g fill="#ff0000" fill-opacity="1"><g transform="translate(262.766386, 198.985743)"><g><path d="M 37.851562 0 L 29.992188 0 L 27.433594 -5.386719 L 10.820312 -5.386719 L 8.304688 0 L 0.449219 0 L 11.71875 -24.246094 L 8.351562 -24.246094 L 8.351562 -31.429688 L 23.167969 -31.429688 Z M 24.066406 -12.570312 L 19.261719 -24.378906 L 18.949219 -24.378906 L 14.144531 -12.570312 Z M 24.066406 -12.570312 "/></g></g></g><g fill="#00ffff" fill-opacity="1"><g transform="translate(57.874409, 198.438449)"><g><path d="M 21.191406 0 L 12.210938 0 L 0.449219 -15.714844 L 12.210938 -31.429688 L 21.191406 -31.429688 L 9.382812 -15.714844 Z M 21.191406 0 "/></g></g></g><g fill="#00ffff" fill-opacity="1"><g transform="translate(84.313105, 198.438449)"><g><path d="M 10.550781 -31.429688 L 20.519531 -17.914062 C 22.195312 -20.160156 23.863281 -22.410156 25.523438 -24.671875 C 27.1875 -26.933594 28.855469 -29.183594 30.53125 -31.429688 L 37.492188 -31.429688 L 37.492188 0 L 30.308594 0 L 30.308594 -19.171875 C 28.660156 -16.988281 27.023438 -14.792969 25.390625 -12.59375 C 23.757812 -10.394531 22.136719 -8.1875 20.519531 -5.972656 C 18.871094 -8.1875 17.242188 -10.394531 15.625 -12.59375 C 14.007812 -14.792969 12.390625 -16.988281 10.777344 -19.171875 L 10.777344 0 L 3.59375 0 L 3.59375 -24.246094 L 0.222656 -24.246094 L 0.222656 -31.429688 Z M 10.550781 -31.429688 "/></g></g></g><g fill="#00ffff" fill-opacity="1"><g transform="translate(128.839471, 198.438449)"><g><path d="M 30.53125 0 L 6.734375 0 L 2.246094 -4.488281 L 2.246094 -26.9375 L 6.734375 -31.429688 L 30.53125 -31.429688 L 35.019531 -26.9375 L 35.019531 -4.488281 Z M 27.835938 -7.183594 L 27.835938 -24.246094 L 9.429688 -24.246094 L 9.429688 -7.183594 Z M 27.835938 -7.183594 "/></g></g></g><g fill="#00ffff" fill-opacity="1"><g transform="translate(170.897287, 198.438449)"><g><path d="M 31.878906 0 L 24.695312 0 L 10.777344 -19.261719 L 10.777344 0 L 3.59375 0 L 3.59375 -24.246094 L 0.222656 -24.246094 L 0.222656 -31.429688 L 10.777344 -31.429688 L 24.695312 -12.121094 L 24.695312 -31.429688 L 31.878906 -31.429688 Z M 31.878906 0 "/></g></g></g><g fill="#00ffff" fill-opacity="1"><g transform="translate(209.813331, 198.438449)"><g><path d="M 2.246094 -31.429688 L 9.429688 -31.429688 L 9.429688 0 L 2.246094 0 Z M 2.246094 -31.429688 "/></g></g></g><g fill="#00ffff" fill-opacity="1"><g transform="translate(226.288106, 198.438449)"><g><path d="M 32.777344 0 L 6.734375 0 L 2.246094 -4.488281 L 2.246094 -26.9375 L 6.734375 -31.429688 L 29.410156 -31.429688 L 33.898438 -26.9375 L 33.898438 -19.753906 L 26.714844 -19.753906 L 26.714844 -24.246094 L 9.429688 -24.246094 L 9.429688 -7.183594 L 32.777344 -7.183594 Z M 32.777344 0 "/></g></g></g><g fill="#00ffff" fill-opacity="1"><g transform="translate(267.22386, 198.438449)"><g><path d="M 37.851562 0 L 29.992188 0 L 27.433594 -5.386719 L 10.820312 -5.386719 L 8.304688 0 L 0.449219 0 L 11.71875 -24.246094 L 8.351562 -24.246094 L 8.351562 -31.429688 L 23.167969 -31.429688 Z M 24.066406 -12.570312 L 19.261719 -24.378906 L 18.949219 -24.378906 L 14.144531 -12.570312 Z M 24.066406 -12.570312 "/></g></g></g><g fill="#88ff55" fill-opacity="1"><g transform="translate(55.645671, 198.712097)"><g><path d="M 21.191406 0 L 12.210938 0 L 0.449219 -15.714844 L 12.210938 -31.429688 L 21.191406 -31.429688 L 9.382812 -15.714844 Z M 21.191406 0 "/></g></g></g><g fill="#88ff55" fill-opacity="1"><g transform="translate(82.084367, 198.712097)"><g><path d="M 10.550781 -31.429688 L 20.519531 -17.914062 C 22.195312 -20.160156 23.863281 -22.410156 25.523438 -24.671875 C 27.1875 -26.933594 28.855469 -29.183594 30.53125 -31.429688 L 37.492188 -31.429688 L 37.492188 0 L 30.308594 0 L 30.308594 -19.171875 C 28.660156 -16.988281 27.023438 -14.792969 25.390625 -12.59375 C 23.757812 -10.394531 22.136719 -8.1875 20.519531 -5.972656 C 18.871094 -8.1875 17.242188 -10.394531 15.625 -12.59375 C 14.007812 -14.792969 12.390625 -16.988281 10.777344 -19.171875 L 10.777344 0 L 3.59375 0 L 3.59375 -24.246094 L 0.222656 -24.246094 L 0.222656 -31.429688 Z M 10.550781 -31.429688 "/></g></g></g><g fill="#88ff55" fill-opacity="1"><g transform="translate(126.610733, 198.712097)"><g><path d="M 30.53125 0 L 6.734375 0 L 2.246094 -4.488281 L 2.246094 -26.9375 L 6.734375 -31.429688 L 30.53125 -31.429688 L 35.019531 -26.9375 L 35.019531 -4.488281 Z M 27.835938 -7.183594 L 27.835938 -24.246094 L 9.429688 -24.246094 L 9.429688 -7.183594 Z M 27.835938 -7.183594 "/></g></g></g><g fill="#88ff55" fill-opacity="1"><g transform="translate(168.668548, 198.712097)"><g><path d="M 31.878906 0 L 24.695312 0 L 10.777344 -19.261719 L 10.777344 0 L 3.59375 0 L 3.59375 -24.246094 L 0.222656 -24.246094 L 0.222656 -31.429688 L 10.777344 -31.429688 L 24.695312 -12.121094 L 24.695312 -31.429688 L 31.878906 -31.429688 Z M 31.878906 0 "/></g></g></g><g fill="#88ff55" fill-opacity="1"><g transform="translate(207.584593, 198.712097)"><g><path d="M 2.246094 -31.429688 L 9.429688 -31.429688 L 9.429688 0 L 2.246094 0 Z M 2.246094 -31.429688 "/></g></g></g><g fill="#88ff55" fill-opacity="1"><g transform="translate(224.059368, 198.712097)"><g><path d="M 32.777344 0 L 6.734375 0 L 2.246094 -4.488281 L 2.246094 -26.9375 L 6.734375 -31.429688 L 29.410156 -31.429688 L 33.898438 -26.9375 L 33.898438 -19.753906 L 26.714844 -19.753906 L 26.714844 -24.246094 L 9.429688 -24.246094 L 9.429688 -7.183594 L 32.777344 -7.183594 Z M 32.777344 0 "/></g></g></g><g fill="#88ff55" fill-opacity="1"><g transform="translate(264.995122, 198.712097)"><g><path d="M 37.851562 0 L 29.992188 0 L 27.433594 -5.386719 L 10.820312 -5.386719 L 8.304688 0 L 0.449219 0 L 11.71875 -24.246094 L 8.351562 -24.246094 L 8.351562 -31.429688 L 23.167969 -31.429688 Z M 24.066406 -12.570312 L 19.261719 -24.378906 L 18.949219 -24.378906 L 14.144531 -12.570312 Z M 24.066406 -12.570312 "/></g></g></g><g fill="#ff0000" fill-opacity="1"><g transform="translate(305.863388, 198.985743)"><g/></g></g><g fill="#00ffff" fill-opacity="1"><g transform="translate(310.320862, 198.438449)"><g/></g></g><g fill="#88ff55" fill-opacity="1"><g transform="translate(308.092123, 198.712097)"><g/></g></g><g fill="#ff0000" fill-opacity="1"><g transform="translate(19.858681, 238.758488)"><g><path d="M 29.183594 0 L 3.59375 0 L 3.59375 -24.246094 L 0.222656 -24.246094 L 0.222656 -31.429688 L 29.183594 -31.429688 L 33.675781 -26.9375 L 33.675781 -20.203125 L 29.183594 -15.714844 L 33.675781 -11.226562 L 33.675781 -4.488281 Z M 26.492188 -7.183594 L 26.492188 -12.121094 L 10.777344 -12.121094 L 10.777344 -7.183594 Z M 26.492188 -19.304688 L 26.492188 -24.246094 L 10.777344 -24.246094 L 10.777344 -19.304688 Z M 26.492188 -19.304688 "/></g></g></g><g fill="#ff0000" fill-opacity="1"><g transform="translate(60.570023, 238.758488)"><g><path d="M 37.851562 0 L 29.992188 0 L 27.433594 -5.386719 L 10.820312 -5.386719 L 8.304688 0 L 0.449219 0 L 11.71875 -24.246094 L 8.351562 -24.246094 L 8.351562 -31.429688 L 23.167969 -31.429688 Z M 24.066406 -12.570312 L 19.261719 -24.378906 L 18.949219 -24.378906 L 14.144531 -12.570312 Z M 24.066406 -12.570312 "/></g></g></g><g fill="#ff0000" fill-opacity="1"><g transform="translate(103.660148, 238.758488)"><g><path d="M 27.386719 -7.632812 C 28.527344 -6.347656 29.648438 -5.066406 30.753906 -3.792969 C 31.863281 -2.523438 32.984375 -1.257812 34.125 0 L 25.007812 0 C 23.871094 -1.257812 22.75 -2.523438 21.640625 -3.792969 C 20.535156 -5.066406 19.410156 -6.347656 18.273438 -7.632812 L 10.777344 -7.632812 L 10.777344 0 L 3.59375 0 L 3.59375 -22 L 10.777344 -22 L 10.777344 -14.816406 L 24.695312 -14.816406 L 24.695312 -24.246094 L 0.222656 -24.246094 L 0.222656 -31.429688 L 27.386719 -31.429688 L 31.878906 -26.9375 L 31.878906 -12.121094 Z M 27.386719 -7.632812 "/></g></g></g><g fill="#ff0000" fill-opacity="1"><g transform="translate(143.025017, 238.758488)"><g><path d="M 27.386719 -7.632812 C 28.527344 -6.347656 29.648438 -5.066406 30.753906 -3.792969 C 31.863281 -2.523438 32.984375 -1.257812 34.125 0 L 25.007812 0 C 23.871094 -1.257812 22.75 -2.523438 21.640625 -3.792969 C 20.535156 -5.066406 19.410156 -6.347656 18.273438 -7.632812 L 10.777344 -7.632812 L 10.777344 0 L 3.59375 0 L 3.59375 -22 L 10.777344 -22 L 10.777344 -14.816406 L 24.695312 -14.816406 L 24.695312 -24.246094 L 0.222656 -24.246094 L 0.222656 -31.429688 L 27.386719 -31.429688 L 31.878906 -26.9375 L 31.878906 -12.121094 Z M 27.386719 -7.632812 "/></g></g></g><g fill="#ff0000" fill-opacity="1"><g transform="translate(182.389886, 238.758488)"><g><path d="M 30.980469 0 L 3.59375 0 L 3.59375 -24.246094 L 0.222656 -24.246094 L 0.222656 -31.429688 L 30.980469 -31.429688 L 30.980469 -24.246094 L 10.777344 -24.246094 L 10.777344 -19.304688 L 26.492188 -19.304688 L 26.492188 -12.121094 L 10.777344 -12.121094 L 10.777344 -7.183594 L 30.980469 -7.183594 Z M 30.980469 0 "/></g></g></g><g fill="#ff0000" fill-opacity="1"><g transform="translate(220.408282, 238.758488)"><g><path d="M 19.800781 0 L 12.617188 0 L 12.617188 -24.246094 L 0.222656 -24.246094 L 0.222656 -31.429688 L 32.191406 -31.429688 L 32.191406 -24.246094 L 19.800781 -24.246094 Z M 19.800781 0 "/></g></g></g><g fill="#ff0000" fill-opacity="1"><g transform="translate(257.61878, 238.758488)"><g><path d="M 30.53125 0 L 6.734375 0 L 2.246094 -4.488281 L 2.246094 -26.9375 L 6.734375 -31.429688 L 30.53125 -31.429688 L 35.019531 -26.9375 L 35.019531 -4.488281 Z M 27.835938 -7.183594 L 27.835938 -24.246094 L 9.429688 -24.246094 L 9.429688 -7.183594 Z M 27.835938 -7.183594 "/></g></g></g><g fill="#ff0000" fill-opacity="1"><g transform="translate(299.676596, 238.758488)"><g><path d="M 7.765625 0 L 0.222656 0 L 23.527344 -31.429688 L 31.070312 -31.429688 Z M 7.765625 0 "/></g></g></g><g fill="#ff0000" fill-opacity="1"><g transform="translate(335.765032, 238.758488)"><g><path d="M 9.429688 0 L 0.449219 0 L 12.257812 -15.714844 L 0.449219 -31.429688 L 9.429688 -31.429688 L 21.191406 -15.714844 Z M 9.429688 0 "/></g></g></g><g fill="#00ffff" fill-opacity="1"><g transform="translate(24.316155, 238.211195)"><g><path d="M 29.183594 0 L 3.59375 0 L 3.59375 -24.246094 L 0.222656 -24.246094 L 0.222656 -31.429688 L 29.183594 -31.429688 L 33.675781 -26.9375 L 33.675781 -20.203125 L 29.183594 -15.714844 L 33.675781 -11.226562 L 33.675781 -4.488281 Z M 26.492188 -7.183594 L 26.492188 -12.121094 L 10.777344 -12.121094 L 10.777344 -7.183594 Z M 26.492188 -19.304688 L 26.492188 -24.246094 L 10.777344 -24.246094 L 10.777344 -19.304688 Z M 26.492188 -19.304688 "/></g></g></g><g fill="#00ffff" fill-opacity="1"><g transform="translate(65.027498, 238.211195)"><g><path d="M 37.851562 0 L 29.992188 0 L 27.433594 -5.386719 L 10.820312 -5.386719 L 8.304688 0 L 0.449219 0 L 11.71875 -24.246094 L 8.351562 -24.246094 L 8.351562 -31.429688 L 23.167969 -31.429688 Z M 24.066406 -12.570312 L 19.261719 -24.378906 L 18.949219 -24.378906 L 14.144531 -12.570312 Z M 24.066406 -12.570312 "/></g></g></g><g fill="#00ffff" fill-opacity="1"><g transform="translate(108.117622, 238.211195)"><g><path d="M 27.386719 -7.632812 C 28.527344 -6.347656 29.648438 -5.066406 30.753906 -3.792969 C 31.863281 -2.523438 32.984375 -1.257812 34.125 0 L 25.007812 0 C 23.871094 -1.257812 22.75 -2.523438 21.640625 -3.792969 C 20.535156 -5.066406 19.410156 -6.347656 18.273438 -7.632812 L 10.777344 -7.632812 L 10.777344 0 L 3.59375 0 L 3.59375 -22 L 10.777344 -22 L 10.777344 -14.816406 L 24.695312 -14.816406 L 24.695312 -24.246094 L 0.222656 -24.246094 L 0.222656 -31.429688 L 27.386719 -31.429688 L 31.878906 -26.9375 L 31.878906 -12.121094 Z M 27.386719 -7.632812 "/></g></g></g><g fill="#00ffff" fill-opacity="1"><g transform="translate(147.482491, 238.211195)"><g><path d="M 27.386719 -7.632812 C 28.527344 -6.347656 29.648438 -5.066406 30.753906 -3.792969 C 31.863281 -2.523438 32.984375 -1.257812 34.125 0 L 25.007812 0 C 23.871094 -1.257812 22.75 -2.523438 21.640625 -3.792969 C 20.535156 -5.066406 19.410156 -6.347656 18.273438 -7.632812 L 10.777344 -7.632812 L 10.777344 0 L 3.59375 0 L 3.59375 -22 L 10.777344 -22 L 10.777344 -14.816406 L 24.695312 -14.816406 L 24.695312 -24.246094 L 0.222656 -24.246094 L 0.222656 -31.429688 L 27.386719 -31.429688 L 31.878906 -26.9375 L 31.878906 -12.121094 Z M 27.386719 -7.632812 "/></g></g></g><g fill="#00ffff" fill-opacity="1"><g transform="translate(186.847361, 238.211195)"><g><path d="M 30.980469 0 L 3.59375 0 L 3.59375 -24.246094 L 0.222656 -24.246094 L 0.222656 -31.429688 L 30.980469 -31.429688 L 30.980469 -24.246094 L 10.777344 -24.246094 L 10.777344 -19.304688 L 26.492188 -19.304688 L 26.492188 -12.121094 L 10.777344 -12.121094 L 10.777344 -7.183594 L 30.980469 -7.183594 Z M 30.980469 0 "/></g></g></g><g fill="#00ffff" fill-opacity="1"><g transform="translate(224.865757, 238.211195)"><g><path d="M 19.800781 0 L 12.617188 0 L 12.617188 -24.246094 L 0.222656 -24.246094 L 0.222656 -31.429688 L 32.191406 -31.429688 L 32.191406 -24.246094 L 19.800781 -24.246094 Z M 19.800781 0 "/></g></g></g><g fill="#00ffff" fill-opacity="1"><g transform="translate(262.076254, 238.211195)"><g><path d="M 30.53125 0 L 6.734375 0 L 2.246094 -4.488281 L 2.246094 -26.9375 L 6.734375 -31.429688 L 30.53125 -31.429688 L 35.019531 -26.9375 L 35.019531 -4.488281 Z M 27.835938 -7.183594 L 27.835938 -24.246094 L 9.429688 -24.246094 L 9.429688 -7.183594 Z M 27.835938 -7.183594 "/></g></g></g><g fill="#00ffff" fill-opacity="1"><g transform="translate(304.13407, 238.211195)"><g><path d="M 7.765625 0 L 0.222656 0 L 23.527344 -31.429688 L 31.070312 -31.429688 Z M 7.765625 0 "/></g></g></g><g fill="#00ffff" fill-opacity="1"><g transform="translate(340.222506, 238.211195)"><g><path d="M 9.429688 0 L 0.449219 0 L 12.257812 -15.714844 L 0.449219 -31.429688 L 9.429688 -31.429688 L 21.191406 -15.714844 Z M 9.429688 0 "/></g></g></g><g fill="#88ff55" fill-opacity="1"><g transform="translate(22.087417, 238.484843)"><g><path d="M 29.183594 0 L 3.59375 0 L 3.59375 -24.246094 L 0.222656 -24.246094 L 0.222656 -31.429688 L 29.183594 -31.429688 L 33.675781 -26.9375 L 33.675781 -20.203125 L 29.183594 -15.714844 L 33.675781 -11.226562 L 33.675781 -4.488281 Z M 26.492188 -7.183594 L 26.492188 -12.121094 L 10.777344 -12.121094 L 10.777344 -7.183594 Z M 26.492188 -19.304688 L 26.492188 -24.246094 L 10.777344 -24.246094 L 10.777344 -19.304688 Z M 26.492188 -19.304688 "/></g></g></g><g fill="#88ff55" fill-opacity="1"><g transform="translate(62.798759, 238.484843)"><g><path d="M 37.851562 0 L 29.992188 0 L 27.433594 -5.386719 L 10.820312 -5.386719 L 8.304688 0 L 0.449219 0 L 11.71875 -24.246094 L 8.351562 -24.246094 L 8.351562 -31.429688 L 23.167969 -31.429688 Z M 24.066406 -12.570312 L 19.261719 -24.378906 L 18.949219 -24.378906 L 14.144531 -12.570312 Z M 24.066406 -12.570312 "/></g></g></g><g fill="#88ff55" fill-opacity="1"><g transform="translate(105.888884, 238.484843)"><g><path d="M 27.386719 -7.632812 C 28.527344 -6.347656 29.648438 -5.066406 30.753906 -3.792969 C 31.863281 -2.523438 32.984375 -1.257812 34.125 0 L 25.007812 0 C 23.871094 -1.257812 22.75 -2.523438 21.640625 -3.792969 C 20.535156 -5.066406 19.410156 -6.347656 18.273438 -7.632812 L 10.777344 -7.632812 L 10.777344 0 L 3.59375 0 L 3.59375 -22 L 10.777344 -22 L 10.777344 -14.816406 L 24.695312 -14.816406 L 24.695312 -24.246094 L 0.222656 -24.246094 L 0.222656 -31.429688 L 27.386719 -31.429688 L 31.878906 -26.9375 L 31.878906 -12.121094 Z M 27.386719 -7.632812 "/></g></g></g><g fill="#88ff55" fill-opacity="1"><g transform="translate(145.253753, 238.484843)"><g><path d="M 27.386719 -7.632812 C 28.527344 -6.347656 29.648438 -5.066406 30.753906 -3.792969 C 31.863281 -2.523438 32.984375 -1.257812 34.125 0 L 25.007812 0 C 23.871094 -1.257812 22.75 -2.523438 21.640625 -3.792969 C 20.535156 -5.066406 19.410156 -6.347656 18.273438 -7.632812 L 10.777344 -7.632812 L 10.777344 0 L 3.59375 0 L 3.59375 -22 L 10.777344 -22 L 10.777344 -14.816406 L 24.695312 -14.816406 L 24.695312 -24.246094 L 0.222656 -24.246094 L 0.222656 -31.429688 L 27.386719 -31.429688 L 31.878906 -26.9375 L 31.878906 -12.121094 Z M 27.386719 -7.632812 "/></g></g></g><g fill="#88ff55" fill-opacity="1"><g transform="translate(184.618622, 238.484843)"><g><path d="M 30.980469 0 L 3.59375 0 L 3.59375 -24.246094 L 0.222656 -24.246094 L 0.222656 -31.429688 L 30.980469 -31.429688 L 30.980469 -24.246094 L 10.777344 -24.246094 L 10.777344 -19.304688 L 26.492188 -19.304688 L 26.492188 -12.121094 L 10.777344 -12.121094 L 10.777344 -7.183594 L 30.980469 -7.183594 Z M 30.980469 0 "/></g></g></g><g fill="#88ff55" fill-opacity="1"><g transform="translate(222.637018, 238.484843)"><g><path d="M 19.800781 0 L 12.617188 0 L 12.617188 -24.246094 L 0.222656 -24.246094 L 0.222656 -31.429688 L 32.191406 -31.429688 L 32.191406 -24.246094 L 19.800781 -24.246094 Z M 19.800781 0 "/></g></g></g><g fill="#88ff55" fill-opacity="1"><g transform="translate(259.847516, 238.484843)"><g><path d="M 30.53125 0 L 6.734375 0 L 2.246094 -4.488281 L 2.246094 -26.9375 L 6.734375 -31.429688 L 30.53125 -31.429688 L 35.019531 -26.9375 L 35.019531 -4.488281 Z M 27.835938 -7.183594 L 27.835938 -24.246094 L 9.429688 -24.246094 L 9.429688 -7.183594 Z M 27.835938 -7.183594 "/></g></g></g><g fill="#88ff55" fill-opacity="1"><g transform="translate(301.905331, 238.484843)"><g><path d="M 7.765625 0 L 0.222656 0 L 23.527344 -31.429688 L 31.070312 -31.429688 Z M 7.765625 0 "/></g></g></g><g fill="#88ff55" fill-opacity="1"><g transform="translate(337.993768, 238.484843)"><g><path d="M 9.429688 0 L 0.449219 0 L 12.257812 -15.714844 L 0.449219 -31.429688 L 9.429688 -31.429688 L 21.191406 -15.714844 Z M 9.429688 0 "/></g></g></g></svg>